{
	"asset":{
		"generator":"Khronos glTF Blender I/O v4.1.62",
		"version":"2.0"
	},
	"extensionsUsed":[
		"KHR_materials_transmission",
		"KHR_materials_ior"
	],
	"scene":0,
	"scenes":[
		{
			"name":"Scene",
			"nodes":[
				0,
				1,
				2,
				3
			]
		}
	],
	"nodes":[
		{
			"mesh":0,
			"name":"curtain001"
		},
		{
			"mesh":1,
			"name":"curtain"
		},
		{
			"mesh":2,
			"name":"wall003"
		},
		{
			"mesh":3,
			"name":"windowglass"
		}
	],
	"materials":[
		{
			"doubleSided":true,
			"name":"curtain",
			"pbrMetallicRoughness":{
				"baseColorFactor":[
					1,
					0.947307288646698,
					0.7835382223129272,
					1
				],
				"metallicFactor":0,
				"roughnessFactor":0.10000000149011612
			}
		},
		{
			"doubleSided":true,
			"name":"Material.002",
			"normalTexture":{
				"index":0,
				"texCoord":1
			},
			"pbrMetallicRoughness":{
				"baseColorTexture":{
					"index":1,
					"texCoord":1
				},
				"metallicFactor":0.20000000298023224,
				"metallicRoughnessTexture":{
					"index":2,
					"texCoord":1
				}
			}
		},
		{
			"alphaMode":"BLEND",
			"extensions":{
				"KHR_materials_transmission":{
					"transmissionFactor":1
				},
				"KHR_materials_ior":{
					"ior":0.7400000691413879
				}
			},
			"name":"glass2.001",
			"pbrMetallicRoughness":{
				"baseColorFactor":[
					1,
					1,
					1,
					0.5
				],
				"metallicFactor":0,
				"roughnessFactor":0.5
			}
		}
	],
	"meshes":[
		{
			"name":"Cube.037",
			"primitives":[
				{
					"attributes":{
						"POSITION":0,
						"NORMAL":1,
						"TEXCOORD_0":2
					},
					"indices":3,
					"material":0
				}
			]
		},
		{
			"name":"Cube.005",
			"primitives":[
				{
					"attributes":{
						"POSITION":4,
						"NORMAL":5,
						"TEXCOORD_0":6
					},
					"indices":7,
					"material":0
				}
			]
		},
		{
			"name":"Cube.155",
			"primitives":[
				{
					"attributes":{
						"POSITION":8,
						"NORMAL":9,
						"TEXCOORD_0":10,
						"TEXCOORD_1":11,
						"TANGENT":12
					},
					"indices":13,
					"material":1
				}
			]
		},
		{
			"name":"Plane.042",
			"primitives":[
				{
					"attributes":{
						"POSITION":14,
						"NORMAL":15,
						"TEXCOORD_0":16,
						"TEXCOORD_1":17,
						"TANGENT":18
					},
					"indices":19,
					"material":2
				}
			]
		}
	],
	"textures":[
		{
			"sampler":0,
			"source":0
		},
		{
			"sampler":0,
			"source":1
		},
		{
			"sampler":0,
			"source":2
		}
	],
	"images":[
		{
			"mimeType":"image/jpeg",
			"name":"background_N",
			"uri":"background/background_N.jpg"
		},
		{
			"mimeType":"image/jpeg",
			"name":"background",
			"uri":"background/background.jpg"
		},
		{
			"mimeType":"image/jpeg",
			"name":"background_R",
			"uri":"background/background_R.jpg"
		}
	],
	"accessors":[
		{
			"bufferView":0,
			"componentType":5126,
			"count":38560,
			"max":[
				1.127000331878662,
				2.7799997329711914,
				-1.9725799560546875
			],
			"min":[
				-0.07789123058319092,
				0.8983852863311768,
				-2.02500057220459
			],
			"type":"VEC3"
		},
		{
			"bufferView":1,
			"componentType":5126,
			"count":38560,
			"type":"VEC3"
		},
		{
			"bufferView":2,
			"componentType":5126,
			"count":38560,
			"type":"VEC2"
		},
		{
			"bufferView":3,
			"componentType":5123,
			"count":105816,
			"type":"SCALAR"
		},
		{
			"bufferView":4,
			"componentType":5126,
			"count":38669,
			"max":[
				-0.08599722385406494,
				2.7799997329711914,
				-1.9460644721984863
			],
			"min":[
				-1.2913284301757812,
				0.8983852863311768,
				-2.01873517036438
			],
			"type":"VEC3"
		},
		{
			"bufferView":5,
			"componentType":5126,
			"count":38669,
			"type":"VEC3"
		},
		{
			"bufferView":6,
			"componentType":5126,
			"count":38669,
			"type":"VEC2"
		},
		{
			"bufferView":7,
			"componentType":5123,
			"count":105816,
			"type":"SCALAR"
		},
		{
			"bufferView":8,
			"componentType":5126,
			"count":12611,
			"max":[
				1.1270005702972412,
				2.7799999713897705,
				1.8250000476837158
			],
			"min":[
				-1.3009999990463257,
				-0.009999999776482582,
				-2.1251416206359863
			],
			"type":"VEC3"
		},
		{
			"bufferView":9,
			"componentType":5126,
			"count":12611,
			"type":"VEC3"
		},
		{
			"bufferView":10,
			"componentType":5126,
			"count":12611,
			"type":"VEC2"
		},
		{
			"bufferView":11,
			"componentType":5126,
			"count":12611,
			"type":"VEC2"
		},
		{
			"bufferView":12,
			"componentType":5126,
			"count":12611,
			"type":"VEC4"
		},
		{
			"bufferView":13,
			"componentType":5123,
			"count":19176,
			"type":"SCALAR"
		},
		{
			"bufferView":14,
			"componentType":5126,
			"count":72,
			"max":[
				0.3990011215209961,
				2.593424081802368,
				-2.0974018573760986
			],
			"min":[
				-0.8409988880157471,
				0.8299997448921204,
				-2.111201047897339
			],
			"type":"VEC3"
		},
		{
			"bufferView":15,
			"componentType":5126,
			"count":72,
			"type":"VEC3"
		},
		{
			"bufferView":16,
			"componentType":5126,
			"count":72,
			"type":"VEC2"
		},
		{
			"bufferView":17,
			"componentType":5126,
			"count":72,
			"type":"VEC2"
		},
		{
			"bufferView":18,
			"componentType":5126,
			"count":72,
			"type":"VEC4"
		},
		{
			"bufferView":19,
			"componentType":5123,
			"count":108,
			"type":"SCALAR"
		}
	],
	"bufferViews":[
		{
			"buffer":0,
			"byteLength":462720,
			"byteOffset":0,
			"target":34962
		},
		{
			"buffer":0,
			"byteLength":462720,
			"byteOffset":462720,
			"target":34962
		},
		{
			"buffer":0,
			"byteLength":308480,
			"byteOffset":925440,
			"target":34962
		},
		{
			"buffer":0,
			"byteLength":211632,
			"byteOffset":1233920,
			"target":34963
		},
		{
			"buffer":0,
			"byteLength":464028,
			"byteOffset":1445552,
			"target":34962
		},
		{
			"buffer":0,
			"byteLength":464028,
			"byteOffset":1909580,
			"target":34962
		},
		{
			"buffer":0,
			"byteLength":309352,
			"byteOffset":2373608,
			"target":34962
		},
		{
			"buffer":0,
			"byteLength":211632,
			"byteOffset":2682960,
			"target":34963
		},
		{
			"buffer":0,
			"byteLength":151332,
			"byteOffset":2894592,
			"target":34962
		},
		{
			"buffer":0,
			"byteLength":151332,
			"byteOffset":3045924,
			"target":34962
		},
		{
			"buffer":0,
			"byteLength":100888,
			"byteOffset":3197256,
			"target":34962
		},
		{
			"buffer":0,
			"byteLength":100888,
			"byteOffset":3298144,
			"target":34962
		},
		{
			"buffer":0,
			"byteLength":201776,
			"byteOffset":3399032,
			"target":34962
		},
		{
			"buffer":0,
			"byteLength":38352,
			"byteOffset":3600808,
			"target":34963
		},
		{
			"buffer":0,
			"byteLength":864,
			"byteOffset":3639160,
			"target":34962
		},
		{
			"buffer":0,
			"byteLength":864,
			"byteOffset":3640024,
			"target":34962
		},
		{
			"buffer":0,
			"byteLength":576,
			"byteOffset":3640888,
			"target":34962
		},
		{
			"buffer":0,
			"byteLength":576,
			"byteOffset":3641464,
			"target":34962
		},
		{
			"buffer":0,
			"byteLength":1152,
			"byteOffset":3642040,
			"target":34962
		},
		{
			"buffer":0,
			"byteLength":216,
			"byteOffset":3643192,
			"target":34963
		}
	],
	"samplers":[
		{
			"magFilter":9729,
			"minFilter":9987
		}
	],
	"buffers":[
		{
			"byteLength":3643408,
			"uri":"background.bin"
		}
	]
}
