{
	"asset":{
		"generator":"Khronos glTF Blender I/O v4.1.62",
		"version":"2.0"
	},
	"extensionsUsed":[
		"KHR_materials_sheen",
		"KHR_materials_specular",
		"KHR_materials_ior",
		"KHR_materials_transmission",
		"KHR_texture_transform"
	],
	"extensionsRequired":[
		"KHR_texture_transform"
	],
	"scene":0,
	"scenes":[
		{
			"name":"Scene",
			"nodes":[
				0,
				1,
				2,
				3,
				4,
				5,
				6,
				7,
				8,
				9,
				10
			]
		}
	],
	"nodes":[
		{
			"mesh":0,
			"name":"bedtable"
		},
		{
			"mesh":1,
			"name":"bed"
		},
		{
			"mesh":2,
			"name":"BezierCurve"
		},
		{
			"mesh":3,
			"name":"tekla_fabrics_bed1_012.014"
		},
		{
			"mesh":4,
			"name":"tekla_fabrics_bed1_012.012"
		},
		{
			"mesh":5,
			"name":"tekla_fabrics_bed1_012.003"
		},
		{
			"mesh":6,
			"name":"tekla_fabrics_bed1_012.001"
		},
		{
			"mesh":7,
			"name":"matrix"
		},
		{
			"mesh":8,
			"name":"Circle"
		},
		{
			"mesh":9,
			"name":"bedlight.001"
		},
		{
			"mesh":10,
			"name":"tekla_fabrics_bed1_012.004"
		}
	],
	"materials":[
		{
			"doubleSided":true,
			"name":"Procedural Wood Texture 01.005",
			"normalTexture":{
				"index":0
			},
			"pbrMetallicRoughness":{
				"baseColorTexture":{
					"index":1
				},
				"metallicFactor":0,
				"metallicRoughnessTexture":{
					"index":2
				}
			}
		},
		{
			"doubleSided":true,
			"name":"bedframe",
			"normalTexture":{
				"index":3
			},
			"pbrMetallicRoughness":{
				"baseColorTexture":{
					"index":4
				},
				"metallicFactor":0,
				"metallicRoughnessTexture":{
					"index":5
				}
			}
		},
		{
			"doubleSided":true,
			"name":"yellowPlastic",
			"pbrMetallicRoughness":{
				"baseColorFactor":[
					0.7755838632583618,
					0.5939056873321533,
					0.2532232999801636,
					1
				],
				"metallicFactor":0.32779455184936523,
				"roughnessFactor":0.5453171730041504
			}
		},
		{
			"doubleSided":true,
			"extensions":{
				"KHR_materials_sheen":{
					"sheenColorFactor":[
						1.0,
						1.0,
						1.0
					],
					"sheenRoughnessFactor":0.5
				}
			},
			"name":"Pillows.003",
			"normalTexture":{
				"index":6,
				"scale":0.5
			},
			"pbrMetallicRoughness":{
				"baseColorFactor":[
					1,
					0.835676908493042,
					0.4660987854003906,
					1
				],
				"metallicFactor":0,
				"roughnessFactor":0.800000011920929
			}
		},
		{
			"doubleSided":true,
			"extensions":{
				"KHR_materials_sheen":{
					"sheenColorFactor":[
						1.0,
						1.0,
						1.0
					],
					"sheenRoughnessFactor":0.5
				}
			},
			"name":"Pillows.013",
			"normalTexture":{
				"index":7,
				"scale":0.5
			},
			"pbrMetallicRoughness":{
				"metallicFactor":0,
				"roughnessFactor":0.800000011920929
			}
		},
		{
			"doubleSided":true,
			"extensions":{
				"KHR_materials_specular":{
					"specularFactor":0.5
				},
				"KHR_materials_ior":{
					"ior":1.4500000476837158
				}
			},
			"name":"Sheet",
			"pbrMetallicRoughness":{
				"baseColorFactor":[
					0.8387984037399292,
					0.791297435760498,
					0.6724433302879333,
					1
				],
				"metallicFactor":0,
				"roughnessFactor":0.800000011920929
			}
		},
		{
			"alphaMode":"BLEND",
			"extensions":{
				"KHR_materials_transmission":{
					"transmissionFactor":0.30000001192092896
				},
				"KHR_materials_ior":{
					"ior":1.1500000953674316
				}
			},
			"name":"Lightbulb",
			"pbrMetallicRoughness":{
				"baseColorFactor":[
					0.7487504482269287,
					0.6683124303817749,
					0.30480122566223145,
					1
				],
				"metallicFactor":0
			}
		},
		{
			"doubleSided":true,
			"name":"blackBlanket",
			"normalTexture":{
				"index":8,
				"scale":2
			},
			"pbrMetallicRoughness":{
				"baseColorFactor":[
					0.011411985382437706,
					0.011411985382437706,
					0.011411985382437706,
					1
				],
				"metallicFactor":0,
				"metallicRoughnessTexture":{
					"extensions":{
						"KHR_texture_transform":{
							"offset":[
								-3.999999999999996,
								1.00000017484556
							],
							"rotation":1.5707963705062866,
							"scale":[
								10,
								4
							]
						}
					},
					"index":9
				}
			}
		}
	],
	"meshes":[
		{
			"name":"Cube.145",
			"primitives":[
				{
					"attributes":{
						"POSITION":0,
						"NORMAL":1,
						"TEXCOORD_0":2
					},
					"indices":3,
					"material":0
				}
			]
		},
		{
			"name":"Cube.013",
			"primitives":[
				{
					"attributes":{
						"POSITION":4,
						"NORMAL":5,
						"TEXCOORD_0":6
					},
					"indices":7,
					"material":1
				}
			]
		},
		{
			"name":"BezierCurve",
			"primitives":[
				{
					"attributes":{
						"POSITION":8,
						"NORMAL":9,
						"TEXCOORD_0":10
					},
					"indices":11,
					"material":2
				}
			]
		},
		{
			"name":"tekla_fabrics_bed1_012.001",
			"primitives":[
				{
					"attributes":{
						"POSITION":12,
						"NORMAL":13,
						"TEXCOORD_0":14
					},
					"indices":15,
					"material":3
				}
			]
		},
		{
			"name":"tekla_fabrics_bed1_012.002",
			"primitives":[
				{
					"attributes":{
						"POSITION":16,
						"NORMAL":17,
						"TEXCOORD_0":18
					},
					"indices":19,
					"material":3
				}
			]
		},
		{
			"name":"tekla_fabrics_bed1_012.003",
			"primitives":[
				{
					"attributes":{
						"POSITION":20,
						"NORMAL":21,
						"TEXCOORD_0":22
					},
					"indices":15,
					"material":4
				}
			]
		},
		{
			"name":"tekla_fabrics_bed1_012.005",
			"primitives":[
				{
					"attributes":{
						"POSITION":23,
						"NORMAL":24,
						"TEXCOORD_0":25
					},
					"indices":26,
					"material":4
				}
			]
		},
		{
			"name":"Pillows_Front.012",
			"primitives":[
				{
					"attributes":{
						"POSITION":27,
						"NORMAL":28,
						"TEXCOORD_0":29
					},
					"indices":30,
					"material":5
				}
			]
		},
		{
			"name":"Circle.004",
			"primitives":[
				{
					"attributes":{
						"POSITION":31,
						"NORMAL":32,
						"TEXCOORD_0":33
					},
					"indices":34,
					"material":2
				}
			]
		},
		{
			"name":"Cylinder.006",
			"primitives":[
				{
					"attributes":{
						"POSITION":35,
						"NORMAL":36,
						"TEXCOORD_0":37
					},
					"indices":38,
					"material":6
				}
			]
		},
		{
			"name":"tekla_fabrics_bed1_012.006",
			"primitives":[
				{
					"attributes":{
						"POSITION":39,
						"NORMAL":40,
						"TEXCOORD_0":41,
						"TEXCOORD_1":42,
						"TEXCOORD_2":43
					},
					"indices":44,
					"material":7
				}
			]
		}
	],
	"textures":[
		{
			"sampler":0,
			"source":0
		},
		{
			"sampler":0,
			"source":1
		},
		{
			"sampler":0,
			"source":2
		},
		{
			"sampler":0,
			"source":3
		},
		{
			"sampler":0,
			"source":4
		},
		{
			"sampler":0,
			"source":5
		},
		{
			"sampler":0,
			"source":6
		},
		{
			"sampler":0,
			"source":6
		},
		{
			"sampler":0,
			"source":7
		},
		{
			"sampler":0,
			"source":8
		}
	],
	"images":[
		{
			"mimeType":"image/jpeg",
			"name":"bedTable_N",
			"uri":"bed/bedTable_N.jpg"
		},
		{
			"mimeType":"image/jpeg",
			"name":"bedTable",
			"uri":"bed/bedTable.jpg"
		},
		{
			"mimeType":"image/jpeg",
			"name":"bedTable_R",
			"uri":"bed/bedTable_R.jpg"
		},
		{
			"mimeType":"image/jpeg",
			"name":"bedFrame_N",
			"uri":"bed/bedFrame_N.jpg"
		},
		{
			"mimeType":"image/jpeg",
			"name":"bedFrame",
			"uri":"bed/bedFrame.jpg"
		},
		{
			"mimeType":"image/jpeg",
			"name":"bedFrame_R",
			"uri":"bed/bedFrame_R.jpg"
		},
		{
			"mimeType":"image/jpeg",
			"name":"Pillows_N",
			"uri":"bed/Pillows_N.jpg"
		},
		{
			"mimeType":"image/jpeg",
			"name":"Pillows_Blanket_Normal000",
			"uri":"bed/Pillows_Blanket_Normal000.jpg"
		},
		{
			"mimeType":"image/jpeg",
			"name":"white strip thick fabric_Roughness",
			"uri":"bed/white%20strip%20thick%20fabric_Roughness.jpg"
		}
	],
	"accessors":[
		{
			"bufferView":0,
			"componentType":5126,
			"count":184,
			"max":[
				-0.8737401962280273,
				0.3313966691493988,
				-0.17499995231628418
			],
			"min":[
				-1.2237404584884644,
				0.001969277858734131,
				-0.7433453798294067
			],
			"type":"VEC3"
		},
		{
			"bufferView":1,
			"componentType":5126,
			"count":184,
			"type":"VEC3"
		},
		{
			"bufferView":2,
			"componentType":5126,
			"count":184,
			"type":"VEC2"
		},
		{
			"bufferView":3,
			"componentType":5123,
			"count":636,
			"type":"SCALAR"
		},
		{
			"bufferView":4,
			"componentType":5126,
			"count":1342,
			"max":[
				0.8398135304450989,
				0.8519694209098816,
				-0.6115946769714355
			],
			"min":[
				-1.2701905965805054,
				2.9802322387695312e-08,
				-1.9666016101837158
			],
			"type":"VEC3"
		},
		{
			"bufferView":5,
			"componentType":5126,
			"count":1342,
			"type":"VEC3"
		},
		{
			"bufferView":6,
			"componentType":5126,
			"count":1342,
			"type":"VEC2"
		},
		{
			"bufferView":7,
			"componentType":5123,
			"count":2376,
			"type":"SCALAR"
		},
		{
			"bufferView":8,
			"componentType":5126,
			"count":1607,
			"max":[
				-0.9917439222335815,
				0.48246151208877563,
				-0.3472483158111572
			],
			"min":[
				-1.2585554122924805,
				0.025270551443099976,
				-0.6079366207122803
			],
			"type":"VEC3"
		},
		{
			"bufferView":9,
			"componentType":5126,
			"count":1607,
			"type":"VEC3"
		},
		{
			"bufferView":10,
			"componentType":5126,
			"count":1607,
			"type":"VEC2"
		},
		{
			"bufferView":11,
			"componentType":5123,
			"count":6546,
			"type":"SCALAR"
		},
		{
			"bufferView":12,
			"componentType":5126,
			"count":14909,
			"max":[
				-0.7897374629974365,
				0.5995061993598938,
				-0.6826727390289307
			],
			"min":[
				-1.2288422584533691,
				0.4514271318912506,
				-1.2923583984375
			],
			"type":"VEC3"
		},
		{
			"bufferView":13,
			"componentType":5126,
			"count":14909,
			"type":"VEC3"
		},
		{
			"bufferView":14,
			"componentType":5126,
			"count":14909,
			"type":"VEC2"
		},
		{
			"bufferView":15,
			"componentType":5123,
			"count":87444,
			"type":"SCALAR"
		},
		{
			"bufferView":16,
			"componentType":5126,
			"count":14974,
			"max":[
				-0.7913448810577393,
				0.6306048631668091,
				-1.2911708354949951
			],
			"min":[
				-1.2254496812820435,
				0.4521108865737915,
				-1.9032740592956543
			],
			"type":"VEC3"
		},
		{
			"bufferView":17,
			"componentType":5126,
			"count":14974,
			"type":"VEC3"
		},
		{
			"bufferView":18,
			"componentType":5126,
			"count":14974,
			"type":"VEC2"
		},
		{
			"bufferView":19,
			"componentType":5123,
			"count":87837,
			"type":"SCALAR"
		},
		{
			"bufferView":20,
			"componentType":5126,
			"count":14909,
			"max":[
				-0.5955569744110107,
				0.7069404721260071,
				-0.6826727390289307
			],
			"min":[
				-0.988372802734375,
				0.45763862133026123,
				-1.2923583984375
			],
			"type":"VEC3"
		},
		{
			"bufferView":21,
			"componentType":5126,
			"count":14909,
			"type":"VEC3"
		},
		{
			"bufferView":22,
			"componentType":5126,
			"count":14909,
			"type":"VEC2"
		},
		{
			"bufferView":23,
			"componentType":5126,
			"count":14974,
			"max":[
				-0.5861598253250122,
				0.7214958071708679,
				-1.2911708354949951
			],
			"min":[
				-0.9785566329956055,
				0.4633674621582031,
				-1.8956079483032227
			],
			"type":"VEC3"
		},
		{
			"bufferView":24,
			"componentType":5126,
			"count":14974,
			"type":"VEC3"
		},
		{
			"bufferView":25,
			"componentType":5126,
			"count":14974,
			"type":"VEC2"
		},
		{
			"bufferView":26,
			"componentType":5123,
			"count":87837,
			"type":"SCALAR"
		},
		{
			"bufferView":27,
			"componentType":5126,
			"count":13665,
			"max":[
				0.8123962879180908,
				0.4964182376861572,
				-0.7309821844100952
			],
			"min":[
				-1.232782244682312,
				0.17225220799446106,
				-1.8409826755523682
			],
			"type":"VEC3"
		},
		{
			"bufferView":28,
			"componentType":5126,
			"count":13665,
			"type":"VEC3"
		},
		{
			"bufferView":29,
			"componentType":5126,
			"count":13665,
			"type":"VEC2"
		},
		{
			"bufferView":30,
			"componentType":5123,
			"count":79557,
			"type":"SCALAR"
		},
		{
			"bufferView":31,
			"componentType":5126,
			"count":297,
			"max":[
				-1.0818601846694946,
				0.36038655042648315,
				-0.5215200185775757
			],
			"min":[
				-1.0854367017745972,
				0.3475531339645386,
				-0.5343533754348755
			],
			"type":"VEC3"
		},
		{
			"bufferView":32,
			"componentType":5126,
			"count":297,
			"type":"VEC3"
		},
		{
			"bufferView":33,
			"componentType":5126,
			"count":297,
			"type":"VEC2"
		},
		{
			"bufferView":34,
			"componentType":5123,
			"count":1536,
			"type":"SCALAR"
		},
		{
			"bufferView":35,
			"componentType":5126,
			"count":1796,
			"max":[
				-0.9617438316345215,
				0.6133965849876404,
				-0.4179363250732422
			],
			"min":[
				-1.181743860244751,
				0.48246151208877563,
				-0.6379362344741821
			],
			"type":"VEC3"
		},
		{
			"bufferView":36,
			"componentType":5126,
			"count":1796,
			"type":"VEC3"
		},
		{
			"bufferView":37,
			"componentType":5126,
			"count":1796,
			"type":"VEC2"
		},
		{
			"bufferView":38,
			"componentType":5123,
			"count":5940,
			"type":"SCALAR"
		},
		{
			"bufferView":39,
			"componentType":5126,
			"count":148166,
			"max":[
				0.9369931221008301,
				0.7349511981010437,
				-0.6343715190887451
			],
			"min":[
				-0.7525849938392639,
				0.3028726577758789,
				-2.0035476684570312
			],
			"type":"VEC3"
		},
		{
			"bufferView":40,
			"componentType":5126,
			"count":148166,
			"type":"VEC3"
		},
		{
			"bufferView":41,
			"componentType":5126,
			"count":148166,
			"type":"VEC2"
		},
		{
			"bufferView":42,
			"componentType":5126,
			"count":148166,
			"type":"VEC2"
		},
		{
			"bufferView":43,
			"componentType":5126,
			"count":148166,
			"type":"VEC2"
		},
		{
			"bufferView":44,
			"componentType":5125,
			"count":884088,
			"type":"SCALAR"
		}
	],
	"bufferViews":[
		{
			"buffer":0,
			"byteLength":2208,
			"byteOffset":0,
			"target":34962
		},
		{
			"buffer":0,
			"byteLength":2208,
			"byteOffset":2208,
			"target":34962
		},
		{
			"buffer":0,
			"byteLength":1472,
			"byteOffset":4416,
			"target":34962
		},
		{
			"buffer":0,
			"byteLength":1272,
			"byteOffset":5888,
			"target":34963
		},
		{
			"buffer":0,
			"byteLength":16104,
			"byteOffset":7160,
			"target":34962
		},
		{
			"buffer":0,
			"byteLength":16104,
			"byteOffset":23264,
			"target":34962
		},
		{
			"buffer":0,
			"byteLength":10736,
			"byteOffset":39368,
			"target":34962
		},
		{
			"buffer":0,
			"byteLength":4752,
			"byteOffset":50104,
			"target":34963
		},
		{
			"buffer":0,
			"byteLength":19284,
			"byteOffset":54856,
			"target":34962
		},
		{
			"buffer":0,
			"byteLength":19284,
			"byteOffset":74140,
			"target":34962
		},
		{
			"buffer":0,
			"byteLength":12856,
			"byteOffset":93424,
			"target":34962
		},
		{
			"buffer":0,
			"byteLength":13092,
			"byteOffset":106280,
			"target":34963
		},
		{
			"buffer":0,
			"byteLength":178908,
			"byteOffset":119372,
			"target":34962
		},
		{
			"buffer":0,
			"byteLength":178908,
			"byteOffset":298280,
			"target":34962
		},
		{
			"buffer":0,
			"byteLength":119272,
			"byteOffset":477188,
			"target":34962
		},
		{
			"buffer":0,
			"byteLength":174888,
			"byteOffset":596460,
			"target":34963
		},
		{
			"buffer":0,
			"byteLength":179688,
			"byteOffset":771348,
			"target":34962
		},
		{
			"buffer":0,
			"byteLength":179688,
			"byteOffset":951036,
			"target":34962
		},
		{
			"buffer":0,
			"byteLength":119792,
			"byteOffset":1130724,
			"target":34962
		},
		{
			"buffer":0,
			"byteLength":175674,
			"byteOffset":1250516,
			"target":34963
		},
		{
			"buffer":0,
			"byteLength":178908,
			"byteOffset":1426192,
			"target":34962
		},
		{
			"buffer":0,
			"byteLength":178908,
			"byteOffset":1605100,
			"target":34962
		},
		{
			"buffer":0,
			"byteLength":119272,
			"byteOffset":1784008,
			"target":34962
		},
		{
			"buffer":0,
			"byteLength":179688,
			"byteOffset":1903280,
			"target":34962
		},
		{
			"buffer":0,
			"byteLength":179688,
			"byteOffset":2082968,
			"target":34962
		},
		{
			"buffer":0,
			"byteLength":119792,
			"byteOffset":2262656,
			"target":34962
		},
		{
			"buffer":0,
			"byteLength":175674,
			"byteOffset":2382448,
			"target":34963
		},
		{
			"buffer":0,
			"byteLength":163980,
			"byteOffset":2558124,
			"target":34962
		},
		{
			"buffer":0,
			"byteLength":163980,
			"byteOffset":2722104,
			"target":34962
		},
		{
			"buffer":0,
			"byteLength":109320,
			"byteOffset":2886084,
			"target":34962
		},
		{
			"buffer":0,
			"byteLength":159114,
			"byteOffset":2995404,
			"target":34963
		},
		{
			"buffer":0,
			"byteLength":3564,
			"byteOffset":3154520,
			"target":34962
		},
		{
			"buffer":0,
			"byteLength":3564,
			"byteOffset":3158084,
			"target":34962
		},
		{
			"buffer":0,
			"byteLength":2376,
			"byteOffset":3161648,
			"target":34962
		},
		{
			"buffer":0,
			"byteLength":3072,
			"byteOffset":3164024,
			"target":34963
		},
		{
			"buffer":0,
			"byteLength":21552,
			"byteOffset":3167096,
			"target":34962
		},
		{
			"buffer":0,
			"byteLength":21552,
			"byteOffset":3188648,
			"target":34962
		},
		{
			"buffer":0,
			"byteLength":14368,
			"byteOffset":3210200,
			"target":34962
		},
		{
			"buffer":0,
			"byteLength":11880,
			"byteOffset":3224568,
			"target":34963
		},
		{
			"buffer":0,
			"byteLength":1777992,
			"byteOffset":3236448,
			"target":34962
		},
		{
			"buffer":0,
			"byteLength":1777992,
			"byteOffset":5014440,
			"target":34962
		},
		{
			"buffer":0,
			"byteLength":1185328,
			"byteOffset":6792432,
			"target":34962
		},
		{
			"buffer":0,
			"byteLength":1185328,
			"byteOffset":7977760,
			"target":34962
		},
		{
			"buffer":0,
			"byteLength":1185328,
			"byteOffset":9163088,
			"target":34962
		},
		{
			"buffer":0,
			"byteLength":3536352,
			"byteOffset":10348416,
			"target":34963
		}
	],
	"samplers":[
		{
			"magFilter":9729,
			"minFilter":9987
		}
	],
	"buffers":[
		{
			"byteLength":13884768,
			"uri":"bed.bin"
		}
	]
}
