{
	"asset":{
		"generator":"Khronos glTF Blender I/O v4.1.62",
		"version":"2.0"
	},
	"extensionsUsed":[
		"KHR_materials_transmission",
		"KHR_materials_emissive_strength",
		"KHR_materials_ior"
	],
	"scene":0,
	"scenes":[
		{
			"name":"Scene",
			"nodes":[
				0,
				1,
				2,
				3,
				4,
				5,
				6,
				7,
				8,
				9,
				10,
				11,
				12
			]
		}
	],
	"nodes":[
		{
			"mesh":0,
			"name":"btrolli"
		},
		{
			"mesh":1,
			"name":"imagetostl_mesh3.002"
		},
		{
			"mesh":2,
			"name":"imagetostl_mesh3.001"
		},
		{
			"mesh":3,
			"name":"car001"
		},
		{
			"mesh":4,
			"name":"shelve"
		},
		{
			"mesh":5,
			"name":"book001"
		},
		{
			"mesh":6,
			"name":"haylight"
		},
		{
			"mesh":7,
			"name":"cup"
		},
		{
			"mesh":8,
			"name":"aesop_RIBB.001"
		},
		{
			"mesh":9,
			"name":"haylight.001"
		},
		{
			"mesh":10,
			"name":"haylight.002"
		},
		{
			"mesh":11,
			"name":"clock.001"
		},
		{
			"mesh":12,
			"name":"clock.003"
		}
	],
	"materials":[
		{
			"doubleSided":true,
			"name":"BtrolliBody",
			"pbrMetallicRoughness":{
				"baseColorTexture":{
					"index":0
				},
				"metallicRoughnessTexture":{
					"index":1
				}
			}
		},
		{
			"doubleSided":true,
			"name":"BTrolli",
			"pbrMetallicRoughness":{
				"baseColorFactor":[
					0.1276838779449463,
					0.1276838779449463,
					0.1276838779449463,
					1
				],
				"metallicFactor":0,
				"roughnessFactor":0.10000000149011612
			}
		},
		{
			"doubleSided":true,
			"name":"sibal",
			"pbrMetallicRoughness":{
				"baseColorTexture":{
					"index":2
				},
				"metallicFactor":0
			}
		},
		{
			"doubleSided":true,
			"name":"balckMetal",
			"pbrMetallicRoughness":{
				"baseColorFactor":[
					0.0713331550359726,
					0.0713331550359726,
					0.0713331550359726,
					1
				],
				"roughnessFactor":0.5
			}
		},
		{
			"doubleSided":true,
			"name":"Book",
			"pbrMetallicRoughness":{
				"baseColorTexture":{
					"index":3
				},
				"metallicFactor":0,
				"roughnessFactor":0.5
			}
		},
		{
			"doubleSided":true,
			"name":"whitePlastic",
			"pbrMetallicRoughness":{
				"baseColorFactor":[
					0.550652801990509,
					0.5303970575332642,
					0.4419267177581787,
					1
				],
				"metallicFactor":0,
				"roughnessFactor":0.30000001192092896
			}
		},
		{
			"name":"Material_0.003",
			"pbrMetallicRoughness":{
				"baseColorTexture":{
					"index":4
				},
				"metallicFactor":0
			}
		},
		{
			"doubleSided":true,
			"name":"Aesop",
			"pbrMetallicRoughness":{
				"baseColorTexture":{
					"index":5
				},
				"metallicRoughnessTexture":{
					"index":6
				}
			}
		},
		{
			"alphaMode":"BLEND",
			"emissiveFactor":[
				1,
				0.6375977993011475,
				0.1980695277452469
			],
			"extensions":{
				"KHR_materials_transmission":{
					"transmissionFactor":0.6314199566841125
				},
				"KHR_materials_emissive_strength":{
					"emissiveStrength":5
				},
				"KHR_materials_ior":{
					"ior":1.4500000476837158
				}
			},
			"name":"Haylight",
			"pbrMetallicRoughness":{
				"metallicFactor":0,
				"roughnessFactor":0.5649546980857849
			}
		},
		{
			"alphaMode":"BLEND",
			"emissiveFactor":[
				1,
				0.4114476442337036,
				0.1136920154094696
			],
			"extensions":{
				"KHR_materials_emissive_strength":{
					"emissiveStrength":100
				}
			},
			"name":"haylight2",
			"pbrMetallicRoughness":{
				"baseColorFactor":[
					0,
					0,
					0,
					1
				]
			}
		},
		{
			"alphaMode":"BLEND",
			"extensions":{
				"KHR_materials_transmission":{
					"transmissionFactor":1
				},
				"KHR_materials_ior":{
					"ior":0.7400000691413879
				}
			},
			"name":"glass2",
			"pbrMetallicRoughness":{
				"baseColorFactor":[
					1,
					1,
					1,
					0.30000001192092896
				],
				"metallicFactor":0,
				"roughnessFactor":0.5
			}
		},
		{
			"doubleSided":true,
			"name":"Material.045",
			"pbrMetallicRoughness":{
				"baseColorTexture":{
					"index":7
				},
				"metallicFactor":0,
				"roughnessFactor":0.5
			}
		}
	],
	"meshes":[
		{
			"name":"imagetostl_mesh3.001",
			"primitives":[
				{
					"attributes":{
						"POSITION":0,
						"NORMAL":1,
						"TEXCOORD_0":2,
						"TANGENT":3
					},
					"indices":4,
					"material":0
				}
			]
		},
		{
			"name":"imagetostl_mesh3.003",
			"primitives":[
				{
					"attributes":{
						"POSITION":5,
						"NORMAL":6
					},
					"indices":7,
					"material":1
				}
			]
		},
		{
			"name":"imagetostl_mesh3.002",
			"primitives":[
				{
					"attributes":{
						"POSITION":8,
						"NORMAL":9
					},
					"indices":10,
					"material":1
				}
			]
		},
		{
			"name":"Mesh_0",
			"primitives":[
				{
					"attributes":{
						"POSITION":11,
						"NORMAL":12,
						"TEXCOORD_0":13,
						"TANGENT":14
					},
					"indices":15,
					"material":2
				}
			]
		},
		{
			"name":"Cube.003",
			"primitives":[
				{
					"attributes":{
						"POSITION":16,
						"NORMAL":17,
						"TEXCOORD_0":18
					},
					"indices":19,
					"material":3
				}
			]
		},
		{
			"name":"Plane.129",
			"primitives":[
				{
					"attributes":{
						"POSITION":20,
						"NORMAL":21,
						"TEXCOORD_0":22,
						"TANGENT":23
					},
					"indices":24,
					"material":4
				}
			]
		},
		{
			"name":"Cylinder.004",
			"primitives":[
				{
					"attributes":{
						"POSITION":25,
						"NORMAL":26,
						"TEXCOORD_0":27
					},
					"indices":28,
					"material":5
				}
			]
		},
		{
			"name":"Mesh_0.001",
			"primitives":[
				{
					"attributes":{
						"POSITION":29,
						"NORMAL":30,
						"TEXCOORD_0":31,
						"TANGENT":32
					},
					"indices":33,
					"material":6
				}
			]
		},
		{
			"name":"Mesh.068",
			"primitives":[
				{
					"attributes":{
						"POSITION":34,
						"NORMAL":35,
						"TEXCOORD_0":36
					},
					"indices":37,
					"material":7
				}
			]
		},
		{
			"name":"Cylinder.002",
			"primitives":[
				{
					"attributes":{
						"POSITION":38,
						"NORMAL":39,
						"TEXCOORD_0":40,
						"TANGENT":41
					},
					"indices":42,
					"material":8
				}
			]
		},
		{
			"name":"Cylinder.003",
			"primitives":[
				{
					"attributes":{
						"POSITION":43,
						"NORMAL":44,
						"TEXCOORD_0":45,
						"TANGENT":46
					},
					"indices":47,
					"material":9
				}
			]
		},
		{
			"name":"Circle.005",
			"primitives":[
				{
					"attributes":{
						"POSITION":48,
						"NORMAL":49,
						"TEXCOORD_0":50
					},
					"indices":51,
					"material":10
				}
			]
		},
		{
			"name":"Circle.007",
			"primitives":[
				{
					"attributes":{
						"POSITION":52,
						"NORMAL":53,
						"TEXCOORD_0":54
					},
					"indices":55,
					"material":11
				}
			]
		}
	],
	"textures":[
		{
			"sampler":0,
			"source":0
		},
		{
			"sampler":0,
			"source":1
		},
		{
			"sampler":0,
			"source":2
		},
		{
			"sampler":0,
			"source":3
		},
		{
			"sampler":0,
			"source":4
		},
		{
			"sampler":0,
			"source":5
		},
		{
			"sampler":0,
			"source":6
		},
		{
			"sampler":0,
			"source":7
		}
	],
	"images":[
		{
			"mimeType":"image/jpeg",
			"name":"Btrolli",
			"uri":"etc/Btrolli.jpg"
		},
		{
			"mimeType":"image/jpeg",
			"name":"Btrolli-M-Btrolli-R",
			"uri":"etc/Btrolli-M-Btrolli-R.jpg"
		},
		{
			"mimeType":"image/jpeg",
			"name":"siballoma",
			"uri":"etc/siballoma.jpg"
		},
		{
			"mimeType":"image/jpeg",
			"name":"Book",
			"uri":"etc/Book.jpg"
		},
		{
			"mimeType":"image/jpeg",
			"name":"Cup",
			"uri":"etc/Cup.jpg"
		},
		{
			"mimeType":"image/jpeg",
			"name":"Aesop",
			"uri":"etc/Aesop.jpg"
		},
		{
			"mimeType":"image/jpeg",
			"name":"Aesop_M-Aesop_R",
			"uri":"etc/Aesop_M-Aesop_R.jpg"
		},
		{
			"mimeType":"image/jpeg",
			"name":"clock",
			"uri":"etc/clock.jpg"
		}
	],
	"accessors":[
		{
			"bufferView":0,
			"componentType":5126,
			"count":79935,
			"max":[
				0.28439486026763916,
				0.5248881578445435,
				-0.1582348346710205
			],
			"min":[
				-0.19443926215171814,
				1.0826624929904938e-08,
				-0.5924158096313477
			],
			"type":"VEC3"
		},
		{
			"bufferView":1,
			"componentType":5126,
			"count":79935,
			"type":"VEC3"
		},
		{
			"bufferView":2,
			"componentType":5126,
			"count":79935,
			"type":"VEC2"
		},
		{
			"bufferView":3,
			"componentType":5126,
			"count":79935,
			"type":"VEC4"
		},
		{
			"bufferView":4,
			"componentType":5125,
			"count":92799,
			"type":"SCALAR"
		},
		{
			"bufferView":5,
			"componentType":5126,
			"count":5851,
			"max":[
				0.14642199873924255,
				0.4019230306148529,
				-0.1532750129699707
			],
			"min":[
				-0.16353130340576172,
				0.3124939203262329,
				-0.47376763820648193
			],
			"type":"VEC3"
		},
		{
			"bufferView":6,
			"componentType":5126,
			"count":5851,
			"type":"VEC3"
		},
		{
			"bufferView":7,
			"componentType":5123,
			"count":7377,
			"type":"SCALAR"
		},
		{
			"bufferView":8,
			"componentType":5126,
			"count":5854,
			"max":[
				0.14642199873924255,
				0.4933846890926361,
				-0.1532750129699707
			],
			"min":[
				-0.16353130340576172,
				0.40395551919937134,
				-0.47376763820648193
			],
			"type":"VEC3"
		},
		{
			"bufferView":9,
			"componentType":5126,
			"count":5854,
			"type":"VEC3"
		},
		{
			"bufferView":10,
			"componentType":5123,
			"count":7377,
			"type":"SCALAR"
		},
		{
			"bufferView":11,
			"componentType":5126,
			"count":425613,
			"max":[
				-1.0454046726226807,
				1.1371324062347412,
				0.1536097526550293
			],
			"min":[
				-1.1452091932296753,
				0.6829759478569031,
				-0.022460222244262695
			],
			"type":"VEC3"
		},
		{
			"bufferView":12,
			"componentType":5126,
			"count":425613,
			"type":"VEC3"
		},
		{
			"bufferView":13,
			"componentType":5126,
			"count":425613,
			"type":"VEC2"
		},
		{
			"bufferView":14,
			"componentType":5126,
			"count":425613,
			"type":"VEC4"
		},
		{
			"bufferView":15,
			"componentType":5125,
			"count":1014222,
			"type":"SCALAR"
		},
		{
			"bufferView":16,
			"componentType":5126,
			"count":2288,
			"max":[
				-0.8984626531600952,
				1.5028529167175293,
				0.25922083854675293
			],
			"min":[
				-1.2884629964828491,
				0,
				-0.13077950477600098
			],
			"type":"VEC3"
		},
		{
			"bufferView":17,
			"componentType":5126,
			"count":2288,
			"type":"VEC3"
		},
		{
			"bufferView":18,
			"componentType":5126,
			"count":2288,
			"type":"VEC2"
		},
		{
			"bufferView":19,
			"componentType":5123,
			"count":4392,
			"type":"SCALAR"
		},
		{
			"bufferView":20,
			"componentType":5126,
			"count":472,
			"max":[
				-0.9736031293869019,
				0.571634829044342,
				0.2079223394393921
			],
			"min":[
				-1.184468388557434,
				0.41101542115211487,
				-0.06341826915740967
			],
			"type":"VEC3"
		},
		{
			"bufferView":21,
			"componentType":5126,
			"count":472,
			"type":"VEC3"
		},
		{
			"bufferView":22,
			"componentType":5126,
			"count":472,
			"type":"VEC2"
		},
		{
			"bufferView":23,
			"componentType":5126,
			"count":472,
			"type":"VEC4"
		},
		{
			"bufferView":24,
			"componentType":5123,
			"count":1422,
			"type":"SCALAR"
		},
		{
			"bufferView":25,
			"componentType":5126,
			"count":2395,
			"max":[
				0.08540317416191101,
				0.7359930872917175,
				-0.35976243019104004
			],
			"min":[
				0.013005241751670837,
				0.5168213248252869,
				-0.4321603775024414
			],
			"type":"VEC3"
		},
		{
			"bufferView":26,
			"componentType":5126,
			"count":2395,
			"type":"VEC3"
		},
		{
			"bufferView":27,
			"componentType":5126,
			"count":2395,
			"type":"VEC2"
		},
		{
			"bufferView":28,
			"componentType":5123,
			"count":9156,
			"type":"SCALAR"
		},
		{
			"bufferView":29,
			"componentType":5126,
			"count":34487,
			"max":[
				0.04354369640350342,
				0.6078410744667053,
				-0.24209022521972656
			],
			"min":[
				-0.03685885667800903,
				0.5136750936508179,
				-0.3220820426940918
			],
			"type":"VEC3"
		},
		{
			"bufferView":30,
			"componentType":5126,
			"count":34487,
			"type":"VEC3"
		},
		{
			"bufferView":31,
			"componentType":5126,
			"count":34487,
			"type":"VEC2"
		},
		{
			"bufferView":32,
			"componentType":5126,
			"count":34487,
			"type":"VEC4"
		},
		{
			"bufferView":33,
			"componentType":5123,
			"count":74976,
			"type":"SCALAR"
		},
		{
			"bufferView":34,
			"componentType":5126,
			"count":7527,
			"max":[
				0.25770220160484314,
				0.6439070701599121,
				-0.18071341514587402
			],
			"min":[
				0.16373953223228455,
				0.5137090682983398,
				-0.4613044261932373
			],
			"type":"VEC3"
		},
		{
			"bufferView":35,
			"componentType":5126,
			"count":7527,
			"type":"VEC3"
		},
		{
			"bufferView":36,
			"componentType":5126,
			"count":7527,
			"type":"VEC2"
		},
		{
			"bufferView":37,
			"componentType":5123,
			"count":33618,
			"type":"SCALAR"
		},
		{
			"bufferView":38,
			"componentType":5126,
			"count":2688,
			"max":[
				0.11918362975120544,
				0.721652090549469,
				-0.32639145851135254
			],
			"min":[
				-0.020307928323745728,
				0.6514086127281189,
				-0.46553194522857666
			],
			"type":"VEC3"
		},
		{
			"bufferView":39,
			"componentType":5126,
			"count":2688,
			"type":"VEC3"
		},
		{
			"bufferView":40,
			"componentType":5126,
			"count":2688,
			"type":"VEC2"
		},
		{
			"bufferView":41,
			"componentType":5126,
			"count":2688,
			"type":"VEC4"
		},
		{
			"bufferView":42,
			"componentType":5123,
			"count":16128,
			"type":"SCALAR"
		},
		{
			"bufferView":43,
			"componentType":5126,
			"count":701,
			"max":[
				0.08353978395462036,
				0.7206656336784363,
				-0.3616260290145874
			],
			"min":[
				0.014868572354316711,
				0.6511579155921936,
				-0.43029725551605225
			],
			"type":"VEC3"
		},
		{
			"bufferView":44,
			"componentType":5126,
			"count":701,
			"type":"VEC3"
		},
		{
			"bufferView":45,
			"componentType":5126,
			"count":701,
			"type":"VEC2"
		},
		{
			"bufferView":46,
			"componentType":5126,
			"count":701,
			"type":"VEC4"
		},
		{
			"bufferView":47,
			"componentType":5123,
			"count":1536,
			"type":"SCALAR"
		},
		{
			"bufferView":48,
			"componentType":5126,
			"count":384,
			"max":[
				-1.2363090515136719,
				2.004699468612671,
				-0.05456197261810303
			],
			"min":[
				-1.2504591941833496,
				1.7622801065444946,
				-0.29698145389556885
			],
			"type":"VEC3"
		},
		{
			"bufferView":49,
			"componentType":5126,
			"count":384,
			"type":"VEC3"
		},
		{
			"bufferView":50,
			"componentType":5126,
			"count":384,
			"type":"VEC2"
		},
		{
			"bufferView":51,
			"componentType":5123,
			"count":756,
			"type":"SCALAR"
		},
		{
			"bufferView":52,
			"componentType":5126,
			"count":1356,
			"max":[
				-1.2359989881515503,
				2.0134894847869873,
				-0.04577171802520752
			],
			"min":[
				-1.290998935699463,
				1.75348961353302,
				-0.30577170848846436
			],
			"type":"VEC3"
		},
		{
			"bufferView":53,
			"componentType":5126,
			"count":1356,
			"type":"VEC3"
		},
		{
			"bufferView":54,
			"componentType":5126,
			"count":1356,
			"type":"VEC2"
		},
		{
			"bufferView":55,
			"componentType":5123,
			"count":4656,
			"type":"SCALAR"
		}
	],
	"bufferViews":[
		{
			"buffer":0,
			"byteLength":959220,
			"byteOffset":0,
			"target":34962
		},
		{
			"buffer":0,
			"byteLength":959220,
			"byteOffset":959220,
			"target":34962
		},
		{
			"buffer":0,
			"byteLength":639480,
			"byteOffset":1918440,
			"target":34962
		},
		{
			"buffer":0,
			"byteLength":1278960,
			"byteOffset":2557920,
			"target":34962
		},
		{
			"buffer":0,
			"byteLength":371196,
			"byteOffset":3836880,
			"target":34963
		},
		{
			"buffer":0,
			"byteLength":70212,
			"byteOffset":4208076,
			"target":34962
		},
		{
			"buffer":0,
			"byteLength":70212,
			"byteOffset":4278288,
			"target":34962
		},
		{
			"buffer":0,
			"byteLength":14754,
			"byteOffset":4348500,
			"target":34963
		},
		{
			"buffer":0,
			"byteLength":70248,
			"byteOffset":4363256,
			"target":34962
		},
		{
			"buffer":0,
			"byteLength":70248,
			"byteOffset":4433504,
			"target":34962
		},
		{
			"buffer":0,
			"byteLength":14754,
			"byteOffset":4503752,
			"target":34963
		},
		{
			"buffer":0,
			"byteLength":5107356,
			"byteOffset":4518508,
			"target":34962
		},
		{
			"buffer":0,
			"byteLength":5107356,
			"byteOffset":9625864,
			"target":34962
		},
		{
			"buffer":0,
			"byteLength":3404904,
			"byteOffset":14733220,
			"target":34962
		},
		{
			"buffer":0,
			"byteLength":6809808,
			"byteOffset":18138124,
			"target":34962
		},
		{
			"buffer":0,
			"byteLength":4056888,
			"byteOffset":24947932,
			"target":34963
		},
		{
			"buffer":0,
			"byteLength":27456,
			"byteOffset":29004820,
			"target":34962
		},
		{
			"buffer":0,
			"byteLength":27456,
			"byteOffset":29032276,
			"target":34962
		},
		{
			"buffer":0,
			"byteLength":18304,
			"byteOffset":29059732,
			"target":34962
		},
		{
			"buffer":0,
			"byteLength":8784,
			"byteOffset":29078036,
			"target":34963
		},
		{
			"buffer":0,
			"byteLength":5664,
			"byteOffset":29086820,
			"target":34962
		},
		{
			"buffer":0,
			"byteLength":5664,
			"byteOffset":29092484,
			"target":34962
		},
		{
			"buffer":0,
			"byteLength":3776,
			"byteOffset":29098148,
			"target":34962
		},
		{
			"buffer":0,
			"byteLength":7552,
			"byteOffset":29101924,
			"target":34962
		},
		{
			"buffer":0,
			"byteLength":2844,
			"byteOffset":29109476,
			"target":34963
		},
		{
			"buffer":0,
			"byteLength":28740,
			"byteOffset":29112320,
			"target":34962
		},
		{
			"buffer":0,
			"byteLength":28740,
			"byteOffset":29141060,
			"target":34962
		},
		{
			"buffer":0,
			"byteLength":19160,
			"byteOffset":29169800,
			"target":34962
		},
		{
			"buffer":0,
			"byteLength":18312,
			"byteOffset":29188960,
			"target":34963
		},
		{
			"buffer":0,
			"byteLength":413844,
			"byteOffset":29207272,
			"target":34962
		},
		{
			"buffer":0,
			"byteLength":413844,
			"byteOffset":29621116,
			"target":34962
		},
		{
			"buffer":0,
			"byteLength":275896,
			"byteOffset":30034960,
			"target":34962
		},
		{
			"buffer":0,
			"byteLength":551792,
			"byteOffset":30310856,
			"target":34962
		},
		{
			"buffer":0,
			"byteLength":149952,
			"byteOffset":30862648,
			"target":34963
		},
		{
			"buffer":0,
			"byteLength":90324,
			"byteOffset":31012600,
			"target":34962
		},
		{
			"buffer":0,
			"byteLength":90324,
			"byteOffset":31102924,
			"target":34962
		},
		{
			"buffer":0,
			"byteLength":60216,
			"byteOffset":31193248,
			"target":34962
		},
		{
			"buffer":0,
			"byteLength":67236,
			"byteOffset":31253464,
			"target":34963
		},
		{
			"buffer":0,
			"byteLength":32256,
			"byteOffset":31320700,
			"target":34962
		},
		{
			"buffer":0,
			"byteLength":32256,
			"byteOffset":31352956,
			"target":34962
		},
		{
			"buffer":0,
			"byteLength":21504,
			"byteOffset":31385212,
			"target":34962
		},
		{
			"buffer":0,
			"byteLength":43008,
			"byteOffset":31406716,
			"target":34962
		},
		{
			"buffer":0,
			"byteLength":32256,
			"byteOffset":31449724,
			"target":34963
		},
		{
			"buffer":0,
			"byteLength":8412,
			"byteOffset":31481980,
			"target":34962
		},
		{
			"buffer":0,
			"byteLength":8412,
			"byteOffset":31490392,
			"target":34962
		},
		{
			"buffer":0,
			"byteLength":5608,
			"byteOffset":31498804,
			"target":34962
		},
		{
			"buffer":0,
			"byteLength":11216,
			"byteOffset":31504412,
			"target":34962
		},
		{
			"buffer":0,
			"byteLength":3072,
			"byteOffset":31515628,
			"target":34963
		},
		{
			"buffer":0,
			"byteLength":4608,
			"byteOffset":31518700,
			"target":34962
		},
		{
			"buffer":0,
			"byteLength":4608,
			"byteOffset":31523308,
			"target":34962
		},
		{
			"buffer":0,
			"byteLength":3072,
			"byteOffset":31527916,
			"target":34962
		},
		{
			"buffer":0,
			"byteLength":1512,
			"byteOffset":31530988,
			"target":34963
		},
		{
			"buffer":0,
			"byteLength":16272,
			"byteOffset":31532500,
			"target":34962
		},
		{
			"buffer":0,
			"byteLength":16272,
			"byteOffset":31548772,
			"target":34962
		},
		{
			"buffer":0,
			"byteLength":10848,
			"byteOffset":31565044,
			"target":34962
		},
		{
			"buffer":0,
			"byteLength":9312,
			"byteOffset":31575892,
			"target":34963
		}
	],
	"samplers":[
		{
			"magFilter":9729,
			"minFilter":9987
		}
	],
	"buffers":[
		{
			"byteLength":31585204,
			"uri":"etc.bin"
		}
	]
}
